<!--?xml version="1.0" standalone="no"?-->
              <svg id="sw-js-blob-svg" viewBox="0 0 100 100" xmlns="http://www.w3.org/2000/svg" version="1.1">
                    <defs> 
                        <linearGradient id="sw-gradient" x1="0" x2="1" y1="1" y2="0">
                            <stop id="stop1" stop-color="rgba(248, 117, 55, 1)" offset="0%"></stop>
                            <stop id="stop2" stop-color="rgba(251, 168, 31, 1)" offset="100%"></stop>
                        </linearGradient>
                    </defs>
                <path fill="url(#sw-gradient)" d="M18,-34.3C19.3,-27.1,13.8,-15.4,17.4,-7.8C21.1,-0.3,33.9,3.2,36.6,7.4C39.3,11.5,31.9,16.4,24.5,16.6C17.1,16.9,9.8,12.7,5.1,11.2C0.4,9.8,-1.6,11.1,-7.9,14.8C-14.1,18.5,-24.6,24.4,-27.1,22.8C-29.5,21.1,-24,11.9,-22.8,4.7C-21.5,-2.5,-24.7,-7.6,-25.6,-14.2C-26.5,-20.8,-25.1,-28.8,-20.4,-34.5C-15.8,-40.2,-7.9,-43.6,0.2,-43.9C8.3,-44.2,16.6,-41.5,18,-34.3Z" width="100%" height="100%" transform="translate(50 50)" stroke-width="0" style="transition: all 0.3s ease 0s;"></path>
              </svg>